<svg width="20" height="20" viewBox="0 0 20 20" fill="none" xmlns="http://www.w3.org/2000/svg">
<path d="M4.16666 10.8333H6.66666M1.66666 7.49998L3.33332 8.33331L4.39219 5.15671C4.61075 4.50102 4.72003 4.17318 4.92273 3.9308C5.10172 3.71676 5.33159 3.55108 5.59125 3.44896C5.88529 3.33331 6.23086 3.33331 6.92201 3.33331H13.078C13.7691 3.33331 14.1147 3.33331 14.4087 3.44896C14.6684 3.55108 14.8983 3.71676 15.0773 3.9308C15.2799 4.17318 15.3892 4.50102 15.6078 5.15671L16.6667 8.33331L18.3333 7.49998M13.3333 10.8333H15.8333M5.66666 8.33331H14.3333C15.7335 8.33331 16.4335 8.33331 16.9683 8.6058C17.4387 8.84548 17.8212 9.22793 18.0608 9.69834C18.3333 10.2331 18.3333 10.9332 18.3333 12.3333V14.5833C18.3333 14.9705 18.3333 15.1641 18.3013 15.3251C18.1698 15.9863 17.653 16.5031 16.9918 16.6346C16.8308 16.6666 16.6372 16.6666 16.25 16.6666H15.8333C14.9128 16.6666 14.1667 15.9205 14.1667 15C14.1667 14.7699 13.9801 14.5833 13.75 14.5833H6.24999C6.01987 14.5833 5.83332 14.7699 5.83332 15C5.83332 15.9205 5.08713 16.6666 4.16666 16.6666H3.74999C3.36278 16.6666 3.16917 16.6666 3.00817 16.6346C2.34702 16.5031 1.83019 15.9863 1.69868 15.3251C1.66666 15.1641 1.66666 14.9705 1.66666 14.5833V12.3333C1.66666 10.9332 1.66666 10.2331 1.93914 9.69834C2.17882 9.22793 2.56128 8.84548 3.03168 8.6058C3.56646 8.33331 4.26653 8.33331 5.66666 8.33331Z" stroke="#323232" stroke-width="2" stroke-linecap="round" stroke-linejoin="round"/>
</svg>
