<svg width="30" height="30" viewBox="0 0 30 30" fill="none" xmlns="http://www.w3.org/2000/svg">
<path d="M19.1667 10.3414C18.0609 9.35178 16.6007 8.75 15 8.75C11.5482 8.75 8.75 11.5482 8.75 15C8.75 18.4518 11.5482 21.25 15 21.25C16.6007 21.25 18.0609 20.6482 19.1667 19.6586M7.5 16.875H13.75M7.5 13.125H13.75M27.5 15C27.5 21.9036 21.9036 27.5 15 27.5C8.09644 27.5 2.5 21.9036 2.5 15C2.5 8.09644 8.09644 2.5 15 2.5C21.9036 2.5 27.5 8.09644 27.5 15Z" stroke="white" stroke-width="2" stroke-linecap="round" stroke-linejoin="round"/>
</svg>
