<svg width="90" height="90" viewBox="0 0 90 90" fill="none" xmlns="http://www.w3.org/2000/svg">
<path d="M51.5399 9.87595L79.7699 28.2255C80.7674 28.8739 81.2662 29.1981 81.6276 29.6305C81.9475 30.0133 82.1877 30.4561 82.3344 30.9329C82.5 31.4716 82.5 32.0664 82.5 33.2562V60.75C82.5 67.0506 82.5 70.2009 81.2738 72.6074C80.1952 74.7243 78.4742 76.4453 76.3574 77.5239C73.9509 78.75 70.8006 78.75 64.5 78.75H25.5C19.1994 78.75 16.0491 78.75 13.6426 77.5239C11.5258 76.4453 9.80475 74.7243 8.72618 72.6074C7.5 70.2009 7.5 67.0506 7.5 60.75V33.2562C7.5 32.0664 7.5 31.4716 7.66564 30.9329C7.81226 30.4561 8.05255 30.0133 8.37243 29.6305C8.73379 29.1981 9.23255 28.8739 10.2301 28.2255L38.4601 9.87596M51.5399 9.87595C49.1727 8.3373 47.9891 7.56797 46.7138 7.26863C45.5866 7.00404 44.4134 7.00404 43.2862 7.26863C42.0109 7.56797 40.8273 8.3373 38.4601 9.87596M51.5399 9.87595L74.7605 24.9694C77.3399 26.646 78.6297 27.4843 79.0763 28.5474C79.4667 29.4765 79.4667 30.5236 79.0763 31.4527C78.6297 32.5158 77.3399 33.3541 74.7605 35.0307L51.5399 50.1241C49.1727 51.6628 47.9891 52.4321 46.7138 52.7315C45.5866 52.996 44.4134 52.996 43.2862 52.7315C42.0109 52.4321 40.8273 51.6628 38.4601 50.1241L15.2395 35.0307C12.66 33.3541 11.3703 32.5158 10.9237 31.4527C10.5333 30.5236 10.5333 29.4765 10.9237 28.5474C11.3703 27.4843 12.66 26.646 15.2395 24.9694L38.4601 9.87596M80.625 71.25L55.7144 48.75M34.2856 48.75L9.375 71.25" stroke="white" stroke-width="2" stroke-linecap="round" stroke-linejoin="round"/>
</svg>
