<svg width="90" height="90" viewBox="0 0 90 90" fill="none" xmlns="http://www.w3.org/2000/svg">
<path d="M31.426 33.1996C34.036 38.6357 37.594 43.7306 42.0999 48.2365C46.6058 52.7424 51.7007 56.3004 57.1368 58.9103C57.6044 59.1348 57.8382 59.2471 58.134 59.3333C59.1853 59.6398 60.4763 59.4197 61.3667 58.7821C61.6172 58.6027 61.8316 58.3884 62.2602 57.9597C63.5713 56.6487 64.2268 55.9932 64.8859 55.5646C67.3718 53.9484 70.5764 53.9484 73.0623 55.5646C73.7215 55.9932 74.377 56.6487 75.688 57.9597L76.4187 58.6905C78.4117 60.6834 79.4081 61.6798 79.9494 62.75C81.0259 64.8784 81.0259 67.3919 79.9494 69.5202C79.4081 70.5904 78.4117 71.5869 76.4187 73.5798L75.8276 74.1709C73.8415 76.157 72.8485 77.15 71.4984 77.9084C70.0002 78.75 67.6734 79.3551 65.9551 79.35C64.4065 79.3454 63.3482 79.045 61.2315 78.4442C49.8563 75.2156 39.1224 69.1238 30.1675 60.1689C21.2125 51.214 15.1208 40.4801 11.8921 29.1049C11.2914 26.9882 10.991 25.9299 10.9864 24.3813C10.9812 22.663 11.5864 20.3362 12.4279 18.838C13.1864 17.4879 14.1794 16.4948 16.1655 14.5088L16.7566 13.9176C18.7495 11.9247 19.746 10.9283 20.8162 10.387C22.9445 9.31046 25.458 9.31046 27.5864 10.387C28.6565 10.9283 29.653 11.9247 31.6459 13.9176L32.3767 14.6484C33.6877 15.9594 34.3432 16.6149 34.7718 17.2741C36.388 19.7599 36.388 22.9646 34.7718 25.4504C34.3432 26.1096 33.6877 26.7651 32.3767 28.0761C31.948 28.5048 31.7337 28.7192 31.5543 28.9697C30.9167 29.8601 30.6966 31.151 31.003 32.2024C31.0893 32.4982 31.2015 32.732 31.426 33.1996Z" stroke="white" stroke-width="2" stroke-linecap="round" stroke-linejoin="round"/>
</svg>
