<svg width="30" height="30" viewBox="0 0 30 30" fill="none" xmlns="http://www.w3.org/2000/svg">
<path d="M10.4753 11.0664C11.3453 12.8785 12.5313 14.5768 14.0333 16.0787C15.5353 17.5807 17.2336 18.7667 19.0456 19.6367C19.2015 19.7115 19.2794 19.749 19.378 19.7777C19.7284 19.8799 20.1588 19.8065 20.4556 19.594C20.5391 19.5342 20.6105 19.4627 20.7534 19.3198C21.1904 18.8828 21.4089 18.6643 21.6286 18.5215C22.4573 17.9827 23.5255 17.9827 24.3541 18.5215C24.5738 18.6643 24.7923 18.8828 25.2293 19.3198L25.4729 19.5634C26.1372 20.2277 26.4694 20.5599 26.6498 20.9166C27.0086 21.626 27.0086 22.4639 26.6498 23.1733C26.4694 23.5301 26.1372 23.8622 25.4729 24.5265L25.2759 24.7236C24.6138 25.3856 24.2828 25.7166 23.8328 25.9694C23.3334 26.2499 22.5578 26.4516 21.985 26.4499C21.4688 26.4484 21.1161 26.3483 20.4105 26.148C16.6188 25.0718 13.0408 23.0412 10.0558 20.0562C7.07085 17.0712 5.04026 13.4933 3.96404 9.70155C3.76379 8.99599 3.66366 8.64321 3.66212 8.12703C3.66042 7.55425 3.86212 6.77864 4.14264 6.27926C4.39545 5.82922 4.72647 5.4982 5.3885 4.83617L5.58554 4.63913C6.24984 3.97483 6.58199 3.64267 6.93872 3.46224C7.64817 3.10341 8.486 3.10341 9.19545 3.46224C9.55218 3.64267 9.88433 3.97482 10.5486 4.63913L10.7922 4.88272C11.2292 5.31972 11.4477 5.53823 11.5906 5.75795C12.1293 6.58656 12.1293 7.65479 11.5906 8.4834C11.4477 8.70312 11.2292 8.92163 10.7922 9.35864C10.6493 9.50153 10.5779 9.57297 10.5181 9.65649C10.3056 9.95327 10.2322 10.3836 10.3343 10.734C10.3631 10.8327 10.4005 10.9106 10.4753 11.0664Z" stroke="white" stroke-width="2" stroke-linecap="round" stroke-linejoin="round"/>
</svg>
