<svg width="20" height="20" viewBox="0 0 20 20" fill="none" xmlns="http://www.w3.org/2000/svg">
<path d="M10 12.5L7.50001 9.99998M10 12.5C11.164 12.0573 12.2807 11.4989 13.3333 10.8333M10 12.5V16.6666C10 16.6666 12.525 16.2083 13.3333 15C14.2333 13.65 13.3333 10.8333 13.3333 10.8333M7.50001 9.99998C7.94346 8.84951 8.50185 7.7467 9.16668 6.70832C10.1377 5.1558 11.4897 3.87752 13.0942 2.99506C14.6987 2.11259 16.5022 1.65529 18.3333 1.66665C18.3333 3.93332 17.6833 7.91665 13.3333 10.8333M7.50001 9.99998H3.33334C3.33334 9.99998 3.79168 7.47498 5.00001 6.66665C6.35001 5.76665 9.16668 6.66665 9.16668 6.66665M3.75001 13.75C2.50001 14.8 2.08334 17.9166 2.08334 17.9166C2.08334 17.9166 5.20001 17.5 6.25001 16.25C6.84168 15.55 6.83334 14.475 6.17501 13.825C5.8511 13.5158 5.42442 13.3372 4.97687 13.3233C4.52931 13.3095 4.09241 13.4614 3.75001 13.75Z" stroke="#323232" stroke-width="2" stroke-linecap="round" stroke-linejoin="round"/>
</svg>
