<svg width="20" height="20" viewBox="0 0 20 20" fill="none" xmlns="http://www.w3.org/2000/svg">
<path d="M11.6666 9.16666H6.66659M8.33325 12.5H6.66659M13.3333 5.83333H6.66659M16.6666 5.66666V14.3333C16.6666 15.7335 16.6666 16.4335 16.3941 16.9683C16.1544 17.4387 15.772 17.8212 15.3016 18.0608C14.7668 18.3333 14.0667 18.3333 12.6666 18.3333H7.33325C5.93312 18.3333 5.23306 18.3333 4.69828 18.0608C4.22787 17.8212 3.84542 17.4387 3.60574 16.9683C3.33325 16.4335 3.33325 15.7335 3.33325 14.3333V5.66666C3.33325 4.26653 3.33325 3.56647 3.60574 3.03169C3.84542 2.56128 4.22787 2.17883 4.69828 1.93915C5.23306 1.66666 5.93312 1.66666 7.33325 1.66666H12.6666C14.0667 1.66666 14.7668 1.66666 15.3016 1.93915C15.772 2.17883 16.1544 2.56128 16.3941 3.03169C16.6666 3.56647 16.6666 4.26653 16.6666 5.66666Z" stroke="#323232" stroke-width="2" stroke-linecap="round" stroke-linejoin="round"/>
</svg>
