<svg width="20" height="20" viewBox="0 0 20 20" fill="none" xmlns="http://www.w3.org/2000/svg">
<path d="M10 3.33333V12.6667C10 14.0668 10 14.7669 10.2725 15.3016C10.5122 15.772 10.8946 16.1545 11.365 16.3942C11.8998 16.6667 12.5999 16.6667 14 16.6667H14.1667M14.1667 16.6667C14.1667 17.5871 14.9129 18.3333 15.8333 18.3333C16.7538 18.3333 17.5 17.5871 17.5 16.6667C17.5 15.7462 16.7538 15 15.8333 15C14.9129 15 14.1667 15.7462 14.1667 16.6667ZM5.83333 3.33333L14.1667 3.33333M5.83333 3.33333C5.83333 4.25381 5.08714 5 4.16667 5C3.24619 5 2.5 4.25381 2.5 3.33333C2.5 2.41286 3.24619 1.66666 4.16667 1.66666C5.08714 1.66666 5.83333 2.41286 5.83333 3.33333ZM14.1667 3.33333C14.1667 4.2538 14.9129 5 15.8333 5C16.7538 5 17.5 4.25381 17.5 3.33333C17.5 2.41286 16.7538 1.66666 15.8333 1.66666C14.9129 1.66666 14.1667 2.41286 14.1667 3.33333ZM10 10H14.1667M14.1667 10C14.1667 10.9205 14.9129 11.6667 15.8333 11.6667C16.7538 11.6667 17.5 10.9205 17.5 10C17.5 9.07952 16.7538 8.33333 15.8333 8.33333C14.9129 8.33333 14.1667 9.07952 14.1667 10Z" stroke="#323232" stroke-width="2" stroke-linecap="round" stroke-linejoin="round"/>
</svg>
