<svg width="30" height="30" viewBox="0 0 30 30" fill="none" xmlns="http://www.w3.org/2000/svg">
<path d="M15 1.19995C7.38567 1.19995 1.19995 7.38567 1.19995 15C1.19995 17.4474 1.87116 19.7315 2.99058 21.7253L1.22222 28.0382C1.19397 28.1392 1.19269 28.2459 1.21851 28.3476C1.24434 28.4492 1.29637 28.5424 1.3694 28.6177C1.44244 28.6929 1.53394 28.7478 1.63477 28.7767C1.73561 28.8056 1.84226 28.8075 1.94409 28.7824L8.52651 27.1511C10.4607 28.1837 12.6555 28.7999 15 28.7999C22.6142 28.7999 28.7999 22.6142 28.7999 15C28.7999 7.38567 22.6142 1.19995 15 1.19995ZM15 2.39995C21.9657 2.39995 27.5999 8.03423 27.5999 15C27.5999 21.9657 21.9657 27.5999 15 27.5999C12.7668 27.5999 10.6752 27.0177 8.85698 26.0003C8.724 25.926 8.56773 25.9051 8.41987 25.9417L2.65542 27.3703L4.20112 21.8554C4.22324 21.7775 4.22935 21.6959 4.21908 21.6155C4.2088 21.5352 4.18237 21.4577 4.14136 21.3878C3.03636 19.5141 2.39995 17.334 2.39995 15C2.39995 8.03423 8.03423 2.39995 15 2.39995ZM9.9855 7.79995C9.60087 7.79995 9.05158 7.94304 8.60034 8.42925C8.32931 8.72128 7.19995 9.82166 7.19995 11.7562C7.19995 13.7731 8.59879 15.5135 8.76792 15.7371H8.76909V15.7382C8.75305 15.7171 8.98377 16.0513 9.29175 16.4519C9.59973 16.8525 10.0304 17.3787 10.5714 17.9484C11.6535 19.0877 13.1749 20.4044 15.0632 21.2097C15.9328 21.58 16.6189 21.8036 17.1386 21.9667C18.1019 22.2692 18.9792 22.2232 19.6382 22.1261C20.1315 22.0535 20.6741 21.8166 21.2109 21.4769C21.7477 21.1372 22.2738 20.7148 22.5058 20.073C22.672 19.6129 22.7565 19.1877 22.7871 18.8378C22.8023 18.6629 22.8043 18.5085 22.7929 18.3656C22.7815 18.2226 22.7937 18.1131 22.6605 17.8945C22.3812 17.4358 22.0648 17.4239 21.7347 17.2605C21.5513 17.1697 21.0291 16.9147 20.5054 16.6652C19.9823 16.4159 19.5293 16.1951 19.2503 16.0957C19.0741 16.0322 18.8589 15.941 18.5484 15.9761C18.2379 16.0113 17.9312 16.2353 17.7527 16.5C17.5835 16.7508 16.9022 17.555 16.6945 17.7914C16.6917 17.7897 16.7097 17.798 16.6277 17.7574C16.3708 17.6302 16.0566 17.5221 15.5917 17.2769C15.1269 17.0317 14.5453 16.6695 13.9089 16.1085V16.1074C12.9618 15.2735 12.2983 14.2266 12.089 13.875C12.1031 13.8582 12.0873 13.8785 12.1171 13.8492L12.1183 13.848C12.3322 13.6373 12.5218 13.3857 12.682 13.2011C12.9091 12.9395 13.0093 12.7088 13.1179 12.4933C13.3343 12.0638 13.2138 11.5912 13.0886 11.3425V11.3414C13.0973 11.3586 13.0209 11.19 12.9386 10.9957C12.8561 10.8007 12.7509 10.548 12.6386 10.2785C12.414 9.73945 12.1632 9.1349 12.014 8.78081V8.77964C11.8383 8.36256 11.6006 8.0621 11.2898 7.91714C10.979 7.77218 10.7044 7.81339 10.6933 7.81284H10.6921C10.4704 7.80261 10.227 7.79995 9.9855 7.79995ZM9.9855 8.99995C10.2168 8.99995 10.4449 9.00277 10.6359 9.01167C10.8324 9.02146 10.8202 9.02227 10.7824 9.00464C10.744 8.98673 10.7961 8.98092 10.9078 9.24604C11.0538 9.59276 11.3059 10.1995 11.5312 10.7402C11.6439 11.0105 11.7493 11.2642 11.8335 11.4632C11.9178 11.6622 11.9634 11.7733 12.0164 11.8792V11.8804L12.0175 11.8816C12.0695 11.984 12.0649 11.9184 12.0468 11.9542C11.9202 12.2055 11.903 12.2672 11.775 12.4148C11.5799 12.6395 11.381 12.89 11.2757 12.9937C11.1836 13.0842 11.0174 13.2252 10.9136 13.5011C10.8097 13.7775 10.8582 14.1567 11.025 14.4398C11.247 14.8167 11.9786 16.0075 13.1156 17.0085C13.8316 17.6398 14.4987 18.0575 15.0316 18.3386C15.5645 18.6197 15.9985 18.7839 16.0957 18.832C16.3263 18.9461 16.5783 19.0348 16.8714 18.9996C17.1645 18.9644 17.4172 18.7865 17.5781 18.6046L17.5792 18.6035C17.7933 18.3608 18.4295 17.6344 18.7347 17.1867C18.7477 17.1912 18.7434 17.1877 18.8449 17.2242V17.2253H18.846C18.8924 17.2418 19.4725 17.5015 19.9898 17.748C20.5071 17.9945 21.0321 18.2507 21.2027 18.3351C21.4489 18.457 21.5652 18.5363 21.5953 18.5367C21.5973 18.5895 21.5993 18.6467 21.5917 18.7335C21.5707 18.9745 21.5063 19.3081 21.3773 19.6652C21.3141 19.84 20.985 20.2005 20.5699 20.4632C20.1548 20.7259 19.6496 20.9115 19.4625 20.939C18.8999 21.0219 18.232 21.0522 17.4984 20.8218C16.9898 20.6622 16.3555 20.4555 15.5343 20.1058C13.8688 19.3955 12.4533 18.1869 11.4421 17.1222C10.9366 16.5899 10.5315 16.0944 10.2433 15.7195C9.95567 15.3453 9.83007 15.1506 9.72534 15.0128L9.72417 15.0117C9.53827 14.7658 8.39995 13.1825 8.39995 11.7562C8.39995 10.2467 9.10105 9.65481 9.48042 9.24604C9.67958 9.03145 9.89732 8.99995 9.9855 8.99995Z" fill="white"/>
</svg>
